<svg xmlns="http://www.w3.org/2000/svg" style="display: none;">
    <symbol id="logo" width="48" height="48" viewBox="0 0 48 48">
            <circle cx="16" cy="24" r="16" fill="#316099"/>
            <circle cx="32" cy="24" r="15" fill="white" stroke="#316099" stroke-width="2"/>
            <path d="M39.3 30L34.38 16H30.96L26.06 30H29.04L29.88 27.48H35.46L36.3 30H39.3ZM32.68 19.18L34.6 24.9H30.76L32.68 19.18Z" fill="#316099"/>
    </symbol>
    <symbol id="burger" width="32" height="32" viewBox="0 0 32 32">
            <path d="M4 24H28V21.3333H4V24ZM4 17.3333H28V14.6667H4V17.3333ZM4 8V10.6667H28V8H4Z" fill="#356EAD"/>
    </symbol>
    <symbol id="arrow" width="24" height="24" viewBox="0 0 24 24">
            <path d="M12 4L10.59 5.41L16.17 11H4V13H16.17L10.59 18.59L12 20L20 12L12 4Z" fill="#5A98D0"/>
    </symbol>
    <symbol id="logo-footer" viewBox="0 0 48 48">
            <circle cx="16" cy="24" r="16" fill="#98C3E8"/>
            <circle cx="32" cy="24" r="15" fill="white" stroke="#316099" stroke-width="2"/>
            <path d="M38.3 31L33.38 17H29.96L25.06 31H28.04L28.88 28.48H34.46L35.3 31H38.3ZM31.68 20.18L33.6 25.9H29.76L31.68 20.18Z" fill="#316099"/>
    </symbol>
</svg>